<?xml version="1.0" encoding="utf-8"?>
<!-- Generator: Adobe Illustrator 20.1.0, SVG Export Plug-In . SVG Version: 6.00 Build 0)  -->
<svg version="1.1" id="Слой_1" xmlns="http://www.w3.org/2000/svg" xmlns:xlink="http://www.w3.org/1999/xlink" x="0px" y="0px"
	 viewBox="0 0 145 36" style="enable-background:new 0 0 145 36;" xml:space="preserve">
<style type="text/css">
	.st0{fill:#FFFFFF;}
	.st1{fill:#2EAB62;}
	.st2{fill:#2B81BA;}
	.st3{fill:#F49D15;}
	.st4{fill:#E84C3D;}
</style>
<g>
	<path class="st0" d="M53.6,22.9H51v-7.8h-3.5v7.8H45v-9.8h8.5V22.9z"/>
	<path class="st0" d="M59.2,20.9c0,0.7-0.3,1.2-0.6,1.6c-0.4,0.4-0.9,0.6-1.5,0.6c-0.2,0-0.4,0-0.5,0c-0.2,0-0.3,0-0.5,0
		c-0.2,0-0.3,0-0.5-0.1V21h0.6c0.2,0,0.3-0.1,0.4-0.2c0.1-0.1,0.2-0.3,0.2-0.4l0.4-7.3H65v9.8h-2.5v-7.8h-2.9L59.2,20.9z"/>
	<path class="st0" d="M76.3,22.9h-2.5v-6l-3.4,6h-2.7v-9.8h2.5v6l3.4-6h2.7V22.9z"/>
	<path class="st0" d="M83.8,22.9h-2.5v-7.8h-2.9v-2h8.4v2h-2.9V22.9z"/>
	<path class="st0" d="M97.3,22.9h-2.5v-4h-3.5v4h-2.5v-9.8h2.5V17h3.5v-3.9h2.5V22.9z"/>
	<path class="st0" d="M108.8,22.9h-2.5v-3.2h-1.9l-1.8,3.2H100l1.8-3.4c-0.6-0.1-1-0.4-1.3-0.9c-0.3-0.4-0.4-1-0.4-1.8v-1
		c0-1,0.2-1.7,0.7-2.1c0.4-0.4,1.2-0.7,2.1-0.7h5.9V22.9z M102.6,16.9c0,0.6,0.3,0.8,0.8,0.8h2.8v-2.7h-2.8c-0.6,0-0.8,0.3-0.8,0.8
		V16.9z"/>
	<path class="st0" d="M117.4,17.9l2.7,5h-2.7l-2.2-4H114v4h-2.5v-9.8h2.5V17h1.3l1.4-2.7c0.2-0.4,0.5-0.7,0.8-1
		c0.3-0.2,0.7-0.4,1.2-0.4c0.2,0,0.3,0,0.5,0c0.1,0,0.3,0,0.4,0c0.1,0,0.3,0.1,0.4,0.1V15h-0.6c-0.1,0-0.3,0-0.4,0.1
		c-0.1,0.1-0.2,0.2-0.3,0.3L117.4,17.9z"/>
	<path class="st0" d="M122.2,20.5h2.5v2.4h-2.5V20.5z"/>
	<path class="st0" d="M129.5,22.9H127v-9.8h2.5V17h1.3l2.2-3.9h2.7l-2.7,4.8l2.7,5h-2.7l-2.2-4h-1.3V22.9z"/>
	<path class="st0" d="M144.9,15.1l-4.9,5.9h4.9v2h-8v-2l4.9-5.9h-4.9v-2h8V15.1z"/>
</g>
<g>
	<path class="st1" d="M1.4,2.6l3.8,5.7c0,0.1,0.1,0.1,0.1,0.2l1.5,5.7C7,14.6,6.5,15.1,6,15l-5.3-1.3c-0.3-0.1-0.6-0.4-0.6-0.7V3
		C0.1,2.2,1,2,1.4,2.6z"/>
	<path class="st1" d="M1,15.3l6.1,1.5c0.3,0.1,0.5,0.3,0.5,0.5l1.9,7c0.1,0.3-0.1,0.7-0.4,0.8l-8,4.3c-0.5,0.3-1.1-0.1-1.1-0.6V16
		C0.1,15.6,0.5,15.2,1,15.3z"/>
	<path class="st1" d="M0.5,31.4l8.7-4.6c0.4-0.2,0.9,0,1,0.5l2.1,7.9c0.1,0.5-0.2,0.9-0.7,0.9H0.8c-0.4,0-0.7-0.3-0.7-0.7V32
		C0.1,31.8,0.2,31.5,0.5,31.4z"/>
	<path class="st2" d="M13.9,35.5l-0.7-2.7c-0.1-0.4,0.2-0.9,0.6-0.9l6.4-0.6c0.3,0,0.5,0.1,0.7,0.3l2.2,3.2c0.3,0.5,0,1.1-0.6,1.1
		h-7.9C14.3,36,14,35.8,13.9,35.5z"/>
	<path class="st2" d="M18.6,30l-5.3,0.5c-0.4,0-0.7-0.2-0.8-0.5l-2-7.4c-0.1-0.3,0-0.5,0.2-0.7l1.6-1.5c0.3-0.3,0.8-0.2,1.1,0.1
		l5.6,8.4C19.4,29.4,19.1,30,18.6,30z"/>
	<path class="st2" d="M11.7,19l-0.8,0.8c-0.4,0.4-1.1,0.2-1.2-0.3l-0.8-3.2c-0.2-0.8,0.8-1.3,1.3-0.6l1.6,2.5
		C12,18.3,12,18.7,11.7,19z"/>
	<path class="st3" d="M6.8,5.8l11.7,3.6c0.3,0.1,0.4,0.3,0.5,0.6l1.7,9c0,0.1,0,0.3-0.1,0.4l-2,4.2c-0.2,0.5-0.9,0.6-1.3,0.1L6,6.9
		C5.6,6.3,6.2,5.6,6.8,5.8z"/>
	<path class="st3" d="M18.4,6.6l-1.1-6C17.2,0.2,16.9,0,16.5,0L2.8,0C2.2,0,1.9,0.7,2.2,1.1l1.2,1.8c0.1,0.1,0.2,0.2,0.4,0.3
		l13.6,4.2C18,7.6,18.5,7.1,18.4,6.6z"/>
	<path class="st3" d="M22.8,14.9L29.5,1c0.2-0.5-0.1-1-0.7-1l-9.4,0c-0.5,0-0.8,0.4-0.7,0.9l2.7,13.9C21.5,15.4,22.5,15.6,22.8,14.9
		z"/>
	<path class="st4" d="M31.5,0.4l-1.3,2.7c-0.3,0.5,0.2,1.1,0.8,1l4.7-0.8c0.3-0.1,0.6-0.4,0.6-0.7v-2c0-0.4-0.3-0.7-0.7-0.7h-3.3
		C31.9,0,31.6,0.2,31.5,0.4z"/>
	<path class="st4" d="M35.4,4.9l-6.2,1c-0.2,0-0.4,0.2-0.5,0.4l-0.9,1.8c-0.1,0.3-0.1,0.6,0.1,0.8l7.1,7.7c0.4,0.5,1.3,0.2,1.3-0.5
		l0-10.5C36.2,5.2,35.8,4.9,35.4,4.9z"/>
	<path class="st4" d="M34.1,17.8l-6.5-7.1c-0.3-0.4-1-0.3-1.2,0.2l-5.7,11.7c-0.3,0.6,0.3,1.2,0.9,1L33.8,19
		C34.3,18.8,34.4,18.2,34.1,17.8z"/>
	<path class="st4" d="M35.2,20l-3,1.1c-0.2,0.1-0.4,0.3-0.5,0.6l-2.2,13.4c-0.1,0.4,0.3,0.8,0.7,0.8l5.2,0c0.4,0,0.7-0.3,0.7-0.7
		V20.7C36.2,20.2,35.7,19.9,35.2,20z"/>
	<path class="st4" d="M29.2,22.4L20,25.8c-0.4,0.2-0.6,0.7-0.3,1.1l5.8,8.8c0.1,0.2,0.4,0.3,0.6,0.3h1.6c0.4,0,0.7-0.3,0.7-0.6
		l1.8-12.2C30.3,22.6,29.7,22.2,29.2,22.4z"/>
</g>
</svg>
